<?xml version="1.0" standalone="no"?>
<!DOCTYPE svg PUBLIC "-//W3C//DTD SVG 20010904//EN"
 "http://www.w3.org/TR/2001/REC-SVG-20010904/DTD/svg10.dtd">
<svg version="1.0" xmlns="http://www.w3.org/2000/svg"
 width="900.000000pt" height="765.000000pt" viewBox="0 0 900.000000 765.000000"
 preserveAspectRatio="xMidYMid meet">
<metadata>
Created by potrace 1.10, written by Peter Selinger 2001-2011
</metadata>
<g transform="translate(0.000000,765.000000) scale(0.100000,-0.100000)"
fill="#000000" stroke="none">
<path d="M8132 7638 c-1 -9 -11 -20 -22 -23 -11 -3 -20 -14 -20 -22 0 -15 -13
-45 -96 -218 -13 -28 -24 -55 -24 -60 0 -6 -13 -37 -29 -70 -80 -166 -110
-232 -116 -257 -4 -14 -15 -34 -26 -44 -19 -17 -23 -14 -117 77 -233 224 -250
231 -172 71 22 -44 40 -88 40 -96 0 -8 5 -18 11 -22 12 -7 69 -126 69 -144 0
-6 -135 -8 -404 -3 -222 3 -411 3 -421 -1 -17 -6 -16 -8 4 -30 13 -13 37 -26
54 -29 48 -7 163 -44 235 -73 18 -8 45 -14 60 -14 16 0 37 -7 48 -15 10 -8 31
-15 45 -15 14 0 34 -7 45 -15 10 -8 31 -15 45 -15 14 0 34 -7 45 -15 10 -8 31
-15 45 -15 15 0 47 -9 73 -20 45 -21 46 -21 30 -45 -9 -14 -20 -25 -24 -25 -4
0 -58 -45 -120 -100 -62 -55 -116 -100 -121 -100 -11 0 -43 -49 -36 -56 10
-10 92 16 198 65 25 12 49 21 53 21 3 0 25 9 49 19 80 37 119 51 128 46 10 -7
0 -325 -11 -340 -4 -5 -11 -101 -14 -212 -7 -182 -6 -203 9 -203 8 0 18 8 21
18 6 15 46 102 125 267 16 33 29 65 29 70 0 6 13 38 30 73 16 34 44 90 60 125
17 34 30 66 30 71 0 17 35 85 43 86 5 0 74 -64 153 -142 80 -79 150 -144 155
-146 15 -6 10 55 -6 68 -8 7 -15 20 -15 30 0 10 -7 23 -15 30 -8 7 -15 20 -15
30 0 10 -7 23 -15 30 -8 7 -15 19 -15 28 0 8 -6 23 -13 31 -16 18 -47 95 -47
115 0 11 64 13 378 8 393 -5 472 -1 472 24 0 9 -11 14 -34 14 -18 0 -39 7 -46
15 -7 8 -20 15 -29 15 -9 0 -55 13 -101 30 -47 16 -94 30 -106 30 -11 0 -24 4
-30 9 -5 4 -101 39 -214 76 -113 38 -209 72 -214 77 -10 8 84 108 101 108 5 0
29 20 53 45 24 25 47 45 51 45 12 0 75 63 88 88 10 19 9 22 -7 22 -10 0 -22
-4 -27 -9 -6 -5 -39 -19 -75 -32 -36 -13 -85 -33 -109 -46 -24 -13 -51 -23
-60 -23 -10 0 -21 -4 -26 -9 -17 -17 -95 -39 -101 -30 -9 15 8 453 18 465 4 7
7 79 5 160 -1 82 -4 141 -5 132z"/>
<path d="M7015 6152 c-88 -46 -158 -89 -193 -116 -49 -40 -451 -441 -500 -500
-31 -37 -86 -103 -122 -145 -75 -88 -100 -118 -178 -221 -56 -74 -242 -349
-242 -357 0 -3 -14 -25 -30 -50 -35 -52 -167 -270 -199 -328 -12 -22 -37 -67
-56 -100 -19 -33 -71 -132 -116 -220 -45 -88 -87 -167 -94 -175 -6 -8 -47 -87
-90 -175 -44 -88 -84 -167 -91 -175 -6 -8 -60 -109 -119 -225 -59 -115 -150
-291 -201 -390 -51 -99 -161 -313 -244 -475 -82 -162 -154 -302 -159 -310 -5
-8 -12 -22 -16 -30 -3 -8 -55 -109 -115 -225 -60 -115 -148 -284 -195 -375
-47 -91 -89 -172 -94 -180 -6 -8 -16 -28 -24 -45 -36 -72 -87 -168 -96 -179
-6 -6 -26 -43 -45 -81 -55 -109 -105 -169 -145 -173 -95 -9 -135 127 -112 373
23 234 37 361 43 375 4 8 9 49 12 90 4 41 11 79 16 84 6 6 10 27 10 49 0 21 5
48 11 59 10 18 17 57 50 253 5 33 13 73 18 90 5 16 14 59 20 95 6 36 17 99 25
140 9 41 23 111 31 155 9 44 23 112 31 150 7 39 18 102 23 142 6 40 14 80 19
90 5 10 13 50 16 88 4 39 12 82 17 96 13 33 -20 141 -53 177 -54 57 -85 67
-198 66 -100 -2 -108 -4 -179 -40 -93 -47 -186 -140 -273 -272 -36 -53 -68
-104 -71 -112 -4 -8 -29 -49 -56 -90 -27 -41 -66 -102 -87 -135 -20 -33 -57
-90 -81 -127 -41 -64 -113 -179 -140 -223 -85 -137 -212 -337 -310 -487 -23
-36 -43 -69 -43 -73 0 -3 -25 -40 -56 -80 -71 -95 -147 -155 -197 -155 -28 0
-107 77 -107 105 -1 11 -7 31 -15 45 -8 14 -14 40 -15 59 0 18 -5 50 -10 70
-6 20 -15 92 -20 161 -11 128 -28 305 -55 560 -8 80 -20 195 -25 255 -10 119
-12 130 -34 250 -21 112 -63 280 -77 307 -5 10 -19 46 -30 80 -39 114 -131
232 -207 269 -53 26 -187 29 -236 6 -121 -57 -173 -83 -184 -94 -7 -7 -17 -13
-22 -13 -10 0 -141 -87 -218 -145 -67 -51 -143 -116 -255 -219 -48 -45 -110
-101 -137 -125 -28 -24 -50 -48 -50 -54 0 -5 -40 -51 -88 -101 -95 -99 -242
-286 -242 -309 0 -8 -7 -20 -15 -27 -8 -7 -15 -19 -15 -28 0 -8 -6 -23 -14
-31 -24 -29 -62 -145 -65 -198 -2 -47 0 -53 18 -53 11 0 45 29 83 72 68 77
191 200 260 261 24 21 86 77 139 125 52 48 135 119 182 157 48 39 110 89 139
113 28 23 55 42 59 42 3 0 35 22 69 50 34 27 69 50 77 50 8 0 28 7 43 17 24
14 33 14 59 3 18 -7 43 -21 56 -32 37 -29 105 -186 105 -243 0 -13 5 -34 10
-47 7 -14 15 -213 21 -493 5 -258 13 -639 17 -845 6 -256 12 -382 20 -397 7
-12 12 -33 12 -47 0 -59 81 -170 165 -224 54 -35 131 -61 182 -62 23 0 45 -4
48 -10 8 -12 72 -13 79 -1 3 4 35 11 72 14 87 8 109 24 251 187 42 48 223 288
223 295 0 3 26 41 58 84 125 173 147 205 151 215 2 6 17 27 32 47 16 20 29 40
29 44 0 4 14 24 30 45 17 21 30 43 30 48 0 6 6 15 13 19 7 4 62 82 122 173 60
91 117 173 127 183 10 10 18 23 18 29 0 6 2 9 4 7 4 -4 -14 -147 -40 -299 -8
-52 -20 -133 -25 -180 -6 -47 -15 -101 -20 -120 -5 -19 -14 -69 -19 -110 -25
-207 -38 -299 -44 -309 -19 -31 -43 -424 -27 -455 5 -12 12 -61 15 -110 3 -49
10 -94 16 -100 5 -5 10 -19 10 -31 0 -24 30 -113 56 -165 40 -81 109 -172 183
-243 104 -99 232 -185 278 -186 12 -1 24 -5 27 -10 3 -5 45 -9 93 -10 93 -1
155 12 213 48 19 11 44 25 55 30 29 14 138 129 171 181 33 53 133 251 134 264
0 5 39 88 86 185 48 97 113 230 145 296 33 67 59 125 59 130 0 6 13 38 30 73
16 34 44 90 60 125 17 34 30 65 30 70 0 9 42 101 106 232 24 50 44 95 44 100
0 5 11 32 24 60 81 170 96 203 96 212 0 6 6 24 14 40 33 64 76 163 76 172 0 5
6 22 14 38 33 64 76 163 76 172 0 5 6 22 14 38 28 55 76 163 76 169 0 4 13 34
29 68 76 163 91 196 91 202 0 6 47 111 76 167 8 16 14 33 14 38 0 5 21 53 46
106 83 177 104 222 104 230 0 8 28 66 159 334 44 91 81 169 81 173 0 11 91
192 121 241 13 22 48 87 77 145 29 58 57 112 62 120 16 26 96 164 103 180 9
18 22 40 60 97 15 24 27 45 27 48 0 3 8 18 19 33 32 45 128 196 132 207 2 6
44 71 93 145 49 74 110 167 135 205 41 63 121 172 217 295 51 65 342 357 389
390 61 43 107 95 103 116 -6 34 -56 26 -153 -24z"/>
</g>
</svg>
