<?xml version="1.0" standalone="no"?>
<!DOCTYPE svg PUBLIC "-//W3C//DTD SVG 20010904//EN"
 "http://www.w3.org/TR/2001/REC-SVG-20010904/DTD/svg10.dtd">
<svg version="1.0" xmlns="http://www.w3.org/2000/svg"
 width="900.000000pt" height="765.000000pt" viewBox="0 0 900.000000 765.000000"
 preserveAspectRatio="xMidYMid meet">
<metadata>
Created by potrace 1.10, written by Peter Selinger 2001-2011
</metadata>
<g transform="translate(0.000000,765.000000) scale(0.100000,-0.100000)"
fill="#000000" stroke="none">
<path d="M8113 7644 c3 -4 -3 -18 -13 -32 -11 -13 -20 -31 -20 -38 0 -7 -11
-33 -24 -58 -14 -25 -27 -59 -31 -76 -4 -16 -11 -32 -16 -35 -5 -4 -9 -14 -9
-24 0 -10 -7 -24 -15 -31 -8 -7 -15 -20 -15 -30 0 -9 -13 -42 -30 -73 -16 -31
-30 -65 -30 -76 0 -10 -7 -24 -15 -31 -8 -7 -15 -19 -15 -28 0 -8 -6 -23 -13
-31 -7 -9 -22 -43 -32 -76 -11 -33 -23 -66 -28 -72 -11 -15 -47 -17 -47 -3 0
6 -64 75 -142 155 -109 110 -145 141 -155 133 -19 -16 -16 -32 16 -80 16 -24
39 -68 52 -98 13 -30 36 -73 51 -94 15 -21 28 -44 28 -51 0 -7 9 -23 20 -35
30 -35 22 -55 -20 -53 -19 0 -78 2 -130 4 -52 1 -102 5 -110 10 -21 10 -587
15 -597 5 -15 -15 46 -50 129 -72 154 -43 186 -52 207 -63 11 -6 35 -11 54
-11 19 0 40 -7 47 -15 7 -8 27 -15 45 -15 18 0 38 -7 45 -15 7 -8 27 -15 45
-15 18 0 38 -7 45 -15 7 -8 27 -15 44 -15 18 0 54 -7 80 -16 58 -20 58 -37 -4
-78 -25 -17 -56 -43 -70 -58 -13 -15 -29 -28 -35 -28 -6 0 -26 -14 -44 -31
-19 -17 -58 -48 -87 -70 -49 -36 -65 -64 -48 -82 7 -7 113 32 135 50 8 7 25
13 36 13 11 0 26 6 32 14 7 8 26 18 42 21 16 4 31 11 34 16 4 5 14 9 24 9 10
0 24 7 31 15 7 8 21 15 31 15 9 0 25 7 33 16 9 8 24 14 34 12 14 -3 17 -13 15
-53 -11 -227 -16 -291 -24 -300 -5 -5 -9 -61 -9 -125 0 -64 -4 -120 -9 -126
-11 -12 -23 -181 -14 -187 18 -10 53 14 58 40 7 30 22 69 36 93 5 8 12 22 15
30 3 8 12 27 20 42 8 14 14 35 14 46 0 11 7 25 15 32 8 7 15 20 15 30 0 10 7
23 15 30 8 7 15 25 15 41 0 15 4 30 9 33 11 7 51 87 51 102 0 5 13 36 29 69
16 33 35 80 43 105 16 50 46 66 55 31 3 -12 9 -21 13 -21 13 0 233 -231 253
-267 7 -11 40 -11 55 2 3 2 -64 131 -89 170 -10 17 -21 35 -23 40 -13 33 -18
42 -29 61 -7 12 -18 28 -25 36 -6 8 -13 30 -14 49 -3 34 -3 34 37 32 148 -7
771 -19 791 -15 31 6 34 42 3 42 -11 0 -33 6 -47 14 -30 15 -111 41 -159 51
-18 4 -35 11 -38 16 -4 5 -21 9 -39 9 -17 0 -36 4 -42 9 -5 4 -61 25 -124 46
-63 20 -130 43 -148 51 -18 8 -42 14 -53 14 -11 0 -33 7 -49 15 -16 8 -35 13
-42 10 -7 -3 -20 0 -28 5 -19 12 -4 39 30 57 13 6 36 23 51 37 15 14 33 26 41
26 7 0 25 12 38 28 14 15 57 53 97 85 77 62 89 80 69 97 -10 8 -28 3 -72 -19
-126 -63 -211 -101 -226 -101 -9 0 -21 -7 -28 -15 -7 -8 -19 -15 -28 -15 -8 0
-23 -6 -31 -14 -9 -8 -25 -16 -36 -18 -19 -3 -20 2 -16 97 2 55 7 110 12 123
5 13 9 76 9 141 0 64 4 121 9 127 5 5 11 75 15 157 7 147 7 147 -15 147 -12 0
-19 -3 -16 -6z m-120 -730 c10 -27 40 -71 68 -101 27 -28 49 -58 49 -67 0 -8
25 -45 55 -81 30 -37 55 -74 55 -81 0 -8 -12 -20 -27 -26 -16 -7 -50 -32 -77
-55 -26 -24 -60 -46 -75 -49 -80 -16 -100 -26 -157 -84 -32 -33 -64 -60 -71
-60 -7 0 -21 21 -33 47 -11 26 -45 73 -75 104 -30 32 -55 64 -55 71 0 8 -18
39 -40 68 -44 59 -50 86 -21 95 10 3 49 32 85 64 44 39 81 62 109 69 31 8 59
28 107 77 35 36 69 64 75 62 5 -2 18 -26 28 -53z"/>
<path d="M7065 6179 c-27 -16 -57 -32 -65 -35 -8 -3 -22 -10 -30 -15 -8 -5
-23 -12 -32 -15 -10 -4 -18 -10 -18 -15 0 -5 -10 -14 -22 -19 -23 -10 -46 -24
-77 -47 -32 -22 -471 -458 -471 -466 0 -5 -18 -27 -39 -50 -37 -39 -55 -60
-156 -183 -22 -26 -55 -65 -72 -85 -18 -20 -33 -40 -33 -44 0 -5 -7 -15 -15
-24 -34 -37 -75 -89 -75 -96 0 -4 -13 -24 -30 -45 -16 -21 -30 -41 -30 -45 0
-4 -13 -24 -30 -45 -16 -21 -30 -41 -30 -45 0 -4 -13 -24 -30 -45 -16 -21 -30
-42 -30 -47 0 -6 -14 -29 -30 -52 -17 -23 -41 -60 -53 -82 -12 -22 -27 -48
-32 -57 -20 -32 -60 -98 -73 -117 -6 -11 -15 -27 -19 -35 -4 -8 -18 -33 -32
-55 -30 -48 -58 -101 -163 -305 -44 -85 -84 -160 -89 -166 -5 -6 -49 -90 -98
-185 -214 -422 -263 -515 -272 -523 -5 -6 -9 -17 -9 -25 0 -8 -6 -22 -14 -30
-16 -17 -166 -311 -166 -324 0 -5 -11 -23 -24 -40 -13 -18 -83 -153 -157 -302
-74 -148 -144 -284 -156 -303 -13 -18 -23 -39 -23 -47 0 -8 -4 -16 -8 -19 -5
-3 -55 -96 -111 -208 -174 -344 -275 -537 -288 -550 -7 -7 -13 -22 -13 -34 0
-12 -6 -26 -13 -32 -7 -6 -30 -44 -51 -84 -81 -157 -152 -279 -184 -319 -32
-39 -79 -40 -113 -2 -50 57 -61 94 -61 205 0 220 1 237 15 260 11 16 15 55 16
132 1 77 5 114 15 125 8 10 14 43 15 90 0 51 5 79 16 91 8 9 15 35 15 59 0 23
7 56 16 72 9 19 16 57 16 95 0 41 5 67 14 75 9 8 14 33 14 74 0 42 5 66 14 74
9 8 14 33 15 71 0 33 7 72 15 89 9 16 16 52 16 78 1 26 7 59 15 73 8 14 15 48
15 75 0 28 7 61 15 75 8 14 14 47 15 73 0 26 6 60 13 75 8 15 15 56 16 92 1
41 7 70 17 81 8 9 14 23 13 31 -6 47 3 128 16 142 17 16 20 62 6 70 -5 4 -12
24 -16 46 -5 32 -18 50 -58 85 -56 49 -56 49 -197 46 -75 -2 -93 -6 -157 -38
-45 -22 -96 -59 -135 -96 -63 -62 -208 -265 -208 -293 0 -8 -6 -17 -14 -20 -8
-3 -17 -13 -20 -22 -7 -20 -13 -29 -86 -142 -72 -110 -78 -121 -90 -147 -5
-13 -14 -23 -19 -23 -5 0 -11 -8 -15 -17 -6 -20 -12 -29 -73 -120 -24 -35 -43
-69 -43 -77 0 -8 -6 -19 -12 -23 -13 -8 -33 -36 -45 -63 -3 -8 -30 -49 -58
-90 -50 -72 -73 -110 -94 -157 -6 -13 -15 -23 -20 -23 -5 0 -11 -8 -15 -17 -6
-20 -12 -29 -73 -120 -24 -35 -43 -70 -43 -78 0 -9 -7 -18 -15 -21 -8 -4 -15
-11 -15 -16 0 -6 -12 -25 -27 -44 -16 -18 -39 -47 -53 -63 -13 -17 -28 -31
-33 -31 -5 0 -26 -13 -47 -30 -21 -16 -49 -30 -63 -30 -32 0 -107 80 -107 114
0 13 -7 29 -15 36 -10 8 -15 30 -15 62 0 27 -5 58 -11 70 -6 11 -13 77 -16
146 -2 70 -9 132 -15 139 -6 7 -12 74 -14 150 -3 76 -9 142 -15 150 -6 7 -13
70 -15 139 -2 70 -9 133 -14 139 -6 7 -12 72 -15 145 -3 77 -10 139 -17 147
-6 7 -12 43 -14 80 -2 36 -8 71 -14 78 -5 6 -13 34 -17 61 -3 26 -12 59 -20
74 -7 14 -13 39 -13 56 0 17 -7 37 -15 44 -8 7 -15 23 -15 36 0 12 -4 25 -9
28 -4 3 -11 19 -15 36 -3 17 -24 59 -47 93 -92 138 -147 171 -277 170 -61 -1
-88 -6 -101 -17 -10 -9 -25 -16 -34 -16 -20 0 -91 -35 -134 -67 -17 -12 -36
-23 -41 -23 -15 0 -122 -72 -122 -81 0 -5 -7 -9 -15 -9 -8 0 -25 -10 -37 -22
-12 -13 -45 -37 -72 -55 -27 -18 -63 -46 -80 -63 -17 -16 -80 -75 -141 -130
-134 -121 -161 -148 -278 -275 -105 -113 -247 -297 -247 -318 0 -8 -7 -20 -15
-27 -8 -7 -15 -20 -15 -29 0 -9 -4 -21 -9 -26 -17 -18 -51 -119 -51 -152 0
-17 -5 -35 -10 -38 -6 -3 -10 -19 -10 -36 0 -52 37 -37 105 43 85 100 207 228
218 228 5 0 44 34 86 75 74 73 137 129 236 210 27 22 66 55 86 73 20 17 41 32
47 32 6 0 15 6 19 13 10 16 88 77 99 77 4 0 14 7 23 15 49 45 90 74 114 80 15
4 30 11 33 16 9 15 68 10 94 -8 35 -25 60 -51 60 -65 0 -6 6 -19 14 -27 20
-23 56 -136 56 -175 0 -19 5 -38 10 -41 6 -4 10 -66 10 -154 0 -81 3 -150 6
-154 3 -3 5 -148 5 -322 -1 -203 2 -321 8 -329 9 -10 15 -249 19 -713 1 -33 6
-64 11 -68 6 -3 11 -26 11 -49 0 -27 6 -48 15 -56 8 -7 15 -19 15 -27 0 -35
158 -173 198 -173 9 0 30 -7 46 -15 15 -8 48 -15 72 -15 23 0 46 -4 49 -10 8
-12 72 -13 79 -1 3 4 35 11 72 14 88 8 103 20 247 182 24 28 73 91 110 140 36
50 76 103 89 119 13 16 25 35 28 41 5 11 32 49 153 216 31 43 57 82 57 85 0 3
14 23 30 44 17 21 30 41 30 45 0 4 14 24 30 45 17 21 30 43 30 48 0 6 6 15 13
19 11 7 127 175 136 198 2 5 16 28 30 50 30 47 44 73 77 137 17 32 29 45 39
41 20 -7 19 -49 -5 -119 -11 -32 -20 -73 -20 -91 0 -17 -4 -34 -9 -37 -5 -4
-12 -44 -16 -91 -4 -47 -11 -87 -15 -90 -5 -3 -11 -49 -15 -103 -4 -53 -11
-102 -15 -107 -5 -6 -12 -51 -16 -100 -3 -50 -10 -94 -14 -100 -5 -5 -11 -53
-15 -105 -4 -52 -12 -100 -16 -106 -5 -6 -12 -56 -16 -110 -3 -55 -9 -104 -14
-109 -12 -16 -13 -226 -2 -234 6 -3 13 -51 16 -106 3 -56 10 -101 16 -103 6
-2 11 -16 11 -30 1 -49 69 -212 106 -253 8 -8 14 -19 14 -24 0 -20 215 -234
236 -235 5 -1 25 -14 44 -30 19 -17 40 -30 47 -30 8 0 25 -7 39 -16 17 -12 38
-15 70 -11 31 3 49 0 59 -9 18 -18 71 -18 78 0 4 10 17 13 45 9 66 -9 172 49
260 141 39 42 74 87 78 100 3 14 12 27 20 30 8 3 14 14 14 24 0 11 7 25 15 32
8 7 15 20 15 30 0 10 7 23 15 30 8 7 15 20 15 30 0 10 7 23 15 30 8 7 15 20
15 29 0 9 41 97 90 195 50 98 90 186 90 196 0 10 7 23 15 30 8 7 15 20 15 30
0 10 7 23 15 30 8 7 15 20 15 30 0 10 7 23 15 30 8 7 15 20 15 30 0 10 7 23
15 30 8 7 15 21 15 32 0 10 14 43 30 73 16 30 30 63 30 73 0 11 7 25 15 32 8
7 15 20 15 30 0 10 7 23 15 30 8 7 15 20 15 29 0 9 14 43 30 74 17 32 30 66
30 76 0 10 7 24 15 31 8 7 15 20 15 30 0 10 7 23 15 30 8 7 15 20 15 30 0 10
7 23 15 30 8 7 15 20 15 30 0 9 11 37 24 62 13 25 27 59 30 76 4 17 14 36 22
43 8 6 14 17 14 24 0 8 8 28 17 47 9 18 22 45 30 60 7 14 13 35 13 46 0 11 7
25 15 32 8 7 15 18 15 25 0 8 8 28 17 47 9 18 22 45 30 60 7 14 13 35 13 46 0
11 7 25 15 32 8 7 15 18 15 25 0 8 8 28 17 47 9 18 22 45 30 60 7 14 13 35 13
46 0 11 7 25 15 32 8 7 15 18 15 25 0 8 6 26 14 42 44 88 65 134 71 161 3 17
13 36 21 43 8 6 14 17 14 24 0 8 6 26 14 42 44 88 65 134 71 161 3 17 13 36
21 43 8 6 14 19 14 28 0 9 18 51 39 93 21 42 42 90 46 106 3 17 13 36 21 43 8
6 14 17 14 24 0 8 6 26 14 42 56 109 95 196 101 222 3 16 13 35 21 42 8 6 14
19 14 29 0 10 7 23 15 30 8 7 15 20 15 30 0 10 7 23 15 30 8 7 15 20 15 30 0
10 7 23 15 30 8 7 15 20 15 30 0 10 7 23 15 30 8 7 15 19 15 28 0 8 23 61 51
116 67 131 75 146 88 159 6 6 11 19 11 28 0 9 7 22 15 29 8 7 15 20 15 30 0
10 7 23 15 30 8 7 15 20 15 30 0 10 7 23 15 30 8 7 15 21 15 31 0 10 6 22 13
26 7 4 24 28 36 53 35 68 48 91 60 103 6 6 11 19 11 29 0 10 7 21 15 24 8 4
15 11 15 16 0 6 14 30 30 55 17 24 30 51 30 59 0 8 7 17 15 20 8 4 15 11 15
16 0 5 27 50 60 100 33 49 60 96 60 103 0 8 6 18 13 22 14 9 32 37 47 71 5 12
14 22 19 22 5 0 12 8 15 18 12 32 37 72 45 72 5 0 11 8 15 18 6 18 7 20 81
130 28 41 56 85 63 98 7 13 17 24 23 24 5 0 9 6 9 13 0 7 14 26 30 42 17 16
30 34 30 40 0 6 13 22 28 35 16 14 31 31 33 38 6 17 360 372 372 372 14 0 121
100 129 121 5 13 1 22 -12 29 -29 15 -51 11 -105 -21z m-1305 -1679 c0 -5 -9
-26 -19 -47 -11 -21 -31 -63 -46 -93 -15 -30 -40 -80 -57 -110 -50 -93 -118
-228 -118 -236 0 -4 -42 -96 -94 -203 -51 -108 -111 -236 -134 -286 -22 -49
-68 -150 -101 -224 -34 -74 -61 -137 -61 -142 0 -4 -20 -50 -43 -101 -24 -51
-65 -142 -91 -203 -27 -60 -61 -137 -76 -170 -16 -33 -44 -98 -63 -145 -52
-127 -264 -618 -292 -675 -13 -27 -60 -133 -105 -235 -45 -102 -115 -258 -156
-347 -41 -89 -74 -164 -74 -166 0 -3 -56 -119 -123 -258 -68 -140 -146 -301
-172 -359 -89 -193 -159 -280 -284 -357 -42 -26 -84 -53 -93 -61 -17 -14 -72
-9 -83 8 -3 5 -34 24 -68 42 -75 40 -210 147 -265 210 -121 141 -182 314 -197
565 -7 103 7 267 35 438 13 79 45 289 75 503 14 94 29 191 35 215 5 23 10 82
10 130 0 96 -15 141 -64 186 -41 38 -88 18 -181 -76 -41 -42 -75 -80 -75 -85
0 -4 -19 -34 -43 -65 -88 -116 -142 -191 -153 -209 -7 -11 -15 -16 -20 -11 -4
4 2 21 14 37 12 16 22 33 22 38 0 5 13 27 28 48 24 34 57 87 161 267 23 39 85
138 298 475 251 398 308 469 412 516 82 37 157 43 199 17 71 -46 69 -82 -43
-651 -9 -47 -21 -107 -25 -135 -5 -27 -15 -79 -24 -115 -8 -36 -31 -153 -51
-260 -20 -107 -45 -233 -56 -280 -43 -178 -94 -647 -86 -785 9 -141 34 -193
135 -276 39 -33 54 -39 92 -39 72 0 141 50 210 151 53 78 131 218 275 499 35
69 80 154 99 190 19 36 135 261 257 500 122 239 236 462 254 495 18 33 67 128
110 210 43 83 119 229 170 325 95 180 169 321 283 540 35 69 90 172 122 230
32 58 79 146 105 195 65 126 109 203 123 217 7 7 12 19 12 28 0 9 9 25 19 34
11 10 29 38 40 62 19 40 41 58 41 34z m-4249 -796 c69 -48 124 -152 173 -326
19 -68 39 -150 46 -183 6 -33 16 -78 21 -100 4 -22 13 -107 20 -190 6 -82 15
-172 20 -199 5 -27 9 -70 9 -96 0 -26 5 -71 10 -101 6 -30 14 -106 20 -169 33
-401 45 -486 87 -580 25 -57 108 -151 155 -176 55 -29 145 -13 208 36 20 15
54 37 77 49 l42 21 -16 -38 c-42 -101 -299 -444 -389 -519 -25 -21 -59 -43
-77 -50 -46 -17 -185 -16 -244 2 -60 18 -135 81 -164 136 -43 85 -41 59 -68
1266 -11 506 -18 582 -71 721 -67 174 -196 273 -317 243 -52 -13 -152 -61
-192 -92 -50 -39 -103 -70 -113 -67 -40 14 320 300 482 384 69 35 176 64 215
58 16 -2 46 -16 66 -30z"/>
</g>
</svg>
