<?xml version="1.0" standalone="no"?>
<!DOCTYPE svg PUBLIC "-//W3C//DTD SVG 20010904//EN"
 "http://www.w3.org/TR/2001/REC-SVG-20010904/DTD/svg10.dtd">
<svg version="1.0" xmlns="http://www.w3.org/2000/svg"
 width="300.000000pt" height="255.000000pt" viewBox="0 0 300.000000 255.000000"
 preserveAspectRatio="xMidYMid meet">
<metadata>
Created by potrace 1.10, written by Peter Selinger 2001-2011
</metadata>
<g transform="translate(0.000000,255.000000) scale(0.100000,-0.100000)"
fill="#000000" stroke="none">
<path d="M2686 2497 c-13 -29 -38 -83 -55 -122 l-31 -69 -55 54 c-30 30 -55
51 -55 47 0 -4 14 -34 30 -67 17 -33 30 -61 30 -62 0 -2 -66 -2 -146 0 -103 3
-144 0 -139 -7 3 -6 11 -11 17 -11 7 0 63 -16 127 -36 l115 -36 -59 -54 c-33
-29 -57 -53 -53 -54 3 0 28 9 55 21 26 11 58 25 71 30 l23 9 -6 -93 c-3 -50
-7 -111 -10 -134 -2 -24 -2 -43 1 -43 3 0 19 30 35 68 17 37 36 81 44 97 8 17
19 43 25 59 l11 29 52 -51 c29 -29 56 -52 61 -52 4 0 -6 26 -23 57 -17 31 -31
60 -31 65 0 5 61 8 136 7 74 0 138 1 141 4 2 3 -54 25 -127 48 l-131 43 58 52
c32 29 55 53 50 54 -4 0 -37 -13 -74 -30 -36 -16 -67 -30 -69 -30 -2 0 -2 17
0 38 13 122 18 222 12 222 -4 0 -18 -24 -30 -53z m12 -227 c9 -9 22 -25 28
-35 6 -11 31 -27 55 -35 l44 -15 -52 -3 c-40 -2 -56 -8 -67 -24 -8 -12 -21
-18 -29 -15 -18 7 -45 -21 -68 -71 l-17 -37 -1 43 c-1 50 -15 82 -36 82 -8 0
-15 9 -15 19 0 11 -11 28 -25 39 -32 25 -32 27 8 27 23 0 35 6 42 22 6 14 17
21 30 20 15 -2 27 12 50 60 l30 62 3 -62 c2 -43 8 -67 20 -77z"/>
<path d="M2304 2032 c-110 -72 -283 -274 -401 -469 -39 -65 -169 -307 -288
-538 -382 -740 -374 -725 -400 -725 -50 0 -44 134 20 459 71 365 69 346 37
384 -19 21 -82 23 -120 3 -46 -24 -75 -63 -221 -296 -139 -222 -189 -290 -214
-290 -33 0 -47 59 -72 287 -27 246 -34 286 -64 355 -56 131 -159 114 -355 -61
-122 -109 -201 -214 -220 -293 -9 -37 6 -35 39 5 63 76 275 252 318 262 22 6
29 2 46 -25 11 -18 22 -54 25 -79 5 -42 20 -499 17 -546 -1 -35 19 -81 47
-107 35 -33 101 -52 136 -38 14 5 26 7 26 3 0 -12 51 41 95 98 24 30 91 126
150 213 80 119 105 150 100 125 -34 -180 -65 -422 -60 -469 9 -82 32 -142 71
-188 90 -106 182 -124 265 -54 34 28 125 208 257 507 336 763 377 851 487
1034 112 186 189 291 286 387 71 71 88 94 73 94 -12 0 -47 -17 -80 -38z m-141
-174 c-4 -7 -37 -58 -73 -113 -93 -141 -143 -227 -231 -405 -74 -151 -124
-262 -303 -672 -122 -280 -244 -537 -273 -576 -13 -18 -42 -41 -63 -52 l-40
-20 -42 20 c-57 27 -89 56 -124 109 -43 65 -45 181 -8 436 25 174 26 197 13
210 -13 14 -18 12 -41 -12 -14 -16 -65 -86 -113 -158 -114 -167 -171 -242
-201 -262 -37 -24 -118 -13 -152 21 -30 29 -28 10 -41 406 -6 217 -10 250 -28
292 -23 51 -53 73 -87 64 -29 -7 -113 -71 -208 -157 -43 -39 -78 -65 -78 -60
0 19 222 236 275 269 192 119 225 78 270 -346 25 -233 30 -258 68 -300 49 -53
83 -19 253 253 76 121 152 239 171 262 36 45 88 69 130 58 25 -6 26 -7 20 -73
-4 -37 -27 -170 -52 -297 -58 -287 -65 -417 -26 -459 32 -35 55 -33 84 7 14
17 88 154 165 302 498 963 512 988 652 1161 76 94 105 126 83 92z"/>
</g>
</svg>
