<?xml version="1.0" standalone="no"?>
<!DOCTYPE svg PUBLIC "-//W3C//DTD SVG 20010904//EN"
 "http://www.w3.org/TR/2001/REC-SVG-20010904/DTD/svg10.dtd">
<svg version="1.0" xmlns="http://www.w3.org/2000/svg"
 width="300.000000pt" height="255.000000pt" viewBox="0 0 300.000000 255.000000"
 preserveAspectRatio="xMidYMid meet">
<metadata>
Created by potrace 1.10, written by Peter Selinger 2001-2011
</metadata>
<g transform="translate(0.000000,255.000000) scale(0.100000,-0.100000)"
fill="#000000" stroke="none">
<path d="M2686 2497 c-13 -29 -38 -83 -55 -122 l-31 -69 -48 47 c-26 26 -51
47 -55 47 -4 0 6 -27 23 -60 l30 -60 -142 0 c-84 0 -138 -4 -132 -9 5 -5 63
-26 129 -46 l119 -37 -59 -54 -60 -54 40 14 c22 8 57 22 78 31 l39 16 -7 -130
c-4 -72 -5 -131 -3 -131 3 0 29 54 58 121 l53 120 54 -53 c59 -58 66 -52 28
22 -14 27 -25 52 -25 54 0 3 64 7 143 8 l142 3 -133 45 -132 44 57 53 c32 29
55 52 51 53 -4 0 -33 -11 -64 -25 -31 -14 -61 -25 -67 -25 -6 0 -8 42 -3 125
4 69 4 125 1 125 -3 0 -17 -24 -29 -53z"/>
<path d="M2304 2032 c-110 -72 -283 -274 -401 -469 -39 -65 -166 -302 -283
-528 -117 -226 -244 -472 -283 -548 -40 -76 -82 -150 -94 -165 l-23 -27 -21
25 c-20 23 -21 32 -15 119 4 51 26 195 51 320 71 365 69 346 37 384 -19 21
-82 23 -120 3 -46 -24 -75 -63 -221 -296 -141 -225 -193 -294 -214 -287 -37
12 -47 52 -72 289 -29 273 -49 354 -101 406 -31 31 -39 34 -78 30 -80 -9 -230
-121 -355 -263 -69 -78 -134 -205 -105 -205 3 0 39 34 80 75 84 84 228 202
261 216 31 12 51 2 70 -35 14 -25 18 -83 25 -321 5 -159 11 -305 14 -323 16
-99 160 -153 233 -88 35 31 96 114 206 276 104 153 120 175 111 150 -17 -48
-66 -441 -61 -485 15 -120 69 -207 161 -261 56 -33 110 -29 163 13 41 32 123
188 258 493 45 102 134 304 198 450 65 146 144 319 178 385 126 253 280 485
401 605 47 47 86 88 86 92 0 17 -30 6 -86 -30z"/>
</g>
</svg>
